<?xml version="1.0" encoding="UTF-8" standalone="no"?>
<!-- Created with Inkscape (http://www.inkscape.org/) -->
<svg
   xmlns:dc="http://purl.org/dc/elements/1.1/"
   xmlns:cc="http://creativecommons.org/ns#"
   xmlns:rdf="http://www.w3.org/1999/02/22-rdf-syntax-ns#"
   xmlns:svg="http://www.w3.org/2000/svg"
   xmlns="http://www.w3.org/2000/svg"
   xmlns:xlink="http://www.w3.org/1999/xlink"
   xmlns:sodipodi="http://sodipodi.sourceforge.net/DTD/sodipodi-0.dtd"
   xmlns:inkscape="http://www.inkscape.org/namespaces/inkscape"
   id="svg2423"
   sodipodi:version="0.32"
   inkscape:version="0.46"
   width="550"
   height="400"
   xml:space="preserve"
   sodipodi:docname="suisscom.svg"
   version="1.0"
   inkscape:output_extension="org.inkscape.output.svg.inkscape"><metadata
     id="metadata2428"><rdf:RDF><cc:Work
         rdf:about=""><dc:format>image/svg+xml</dc:format><dc:type
           rdf:resource="http://purl.org/dc/dcmitype/StillImage" /></cc:Work></rdf:RDF></metadata><defs
     id="defs2426"><inkscape:perspective
       sodipodi:type="inkscape:persp3d"
       inkscape:vp_x="0 : 47.050457 : 1"
       inkscape:vp_y="0 : 1000 : 0"
       inkscape:vp_z="127.56625 : 47.050457 : 1"
       inkscape:persp3d-origin="63.783127 : 31.366971 : 1"
       id="perspective64" /><linearGradient
       id="linearGradient13181"><stop
         id="stop13183"
         offset="0"
         style="stop-color:#52c0ee;stop-opacity:1;" /><stop
         id="stop13185"
         offset="1"
         style="stop-color:#002f7a;stop-opacity:0.98039216;" /></linearGradient><linearGradient
       id="linearGradient13159"><stop
         id="stop13161"
         offset="0"
         style="stop-color:#131f65;stop-opacity:1;" /><stop
         id="stop13163"
         offset="1"
         style="stop-color:#52c0ee;stop-opacity:0.98039216;" /></linearGradient><linearGradient
       id="linearGradient13133"><stop
         style="stop-color:#004c94;stop-opacity:1;"
         offset="0"
         id="stop13135" /><stop
         style="stop-color:#52c0ee;stop-opacity:0.98039216;"
         offset="1"
         id="stop13137" /></linearGradient><linearGradient
       id="linearGradient13097"><stop
         style="stop-color:#ee312f;stop-opacity:1"
         offset="0"
         id="stop13099" /><stop
         style="stop-color:#751024;stop-opacity:1;"
         offset="1"
         id="stop13101" /></linearGradient><clipPath
       clipPathUnits="userSpaceOnUse"
       id="clipPath2440"><path
         d="M 132.334,74.719 C 132.797,74.291 133.291,73.891 133.806,73.517 C 134.155,73.263 134.516,73.023 134.884,72.793 C 135.376,72.486 135.882,72.2 136.394,71.935 C 137.088,71.577 138.181,71.078 138.882,70.797 C 138.745,71.012 138.646,71.16 138.484,71.405 C 138.135,71.803 137.81,72.187 137.496,72.719 C 137.248,73.139 137.008,73.653 136.771,74.344 C 136.622,74.774 136.461,75.258 136.312,75.79 C 136.208,76.158 136.11,76.551 136.024,76.97 C 136.01,77.047 135.942,77.349 135.924,77.429 C 135.835,77.852 135.753,78.253 135.663,78.641 C 135.574,79.021 135.475,79.389 135.352,79.755 C 135.154,80.338 134.936,80.899 134.701,81.434 C 134.414,82.084 134.101,82.695 133.767,83.261 C 133.547,83.634 132.964,84.398 132.709,84.729 C 132.513,84.984 132.341,85.18 132.154,85.386 C 132.015,85.54 131.869,85.697 131.702,85.888 C 131.501,86.116 131.265,86.329 131.069,86.549 C 131.055,86.565 131.061,86.557 131.032,86.524 C 130.6,85.976 130.209,85.416 129.884,84.837 C 129.616,84.361 129.395,83.873 129.23,83.371 C 129.136,83.083 129.059,82.792 129.004,82.496 C 128.947,82.193 128.912,81.886 128.901,81.573 C 128.887,81.184 128.91,80.787 128.972,80.38 C 129.037,79.965 129.143,79.538 129.298,79.102 C 129.475,78.596 129.717,78.078 130.029,77.542 C 130.068,77.472 130.11,77.404 130.152,77.334 C 130.742,76.372 131.487,75.499 132.334,74.719"
         id="path2442" /></clipPath><clipPath
       clipPathUnits="userSpaceOnUse"
       id="clipPath2448"><path
         d="M 8152.6099,8172.4897 L 8180.3696,8172.4897 L 8180.3696,8216.29 L 8152.6099,8216.29 L 8152.6099,8172.4897 z"
         id="path2450" /></clipPath><clipPath
       clipPathUnits="userSpaceOnUse"
       id="clipPath2662"><path
         d="M 138.882,65.453 C 139.83,65.531 140.823,65.663 141.841,65.85 C 143.099,66.083 144.395,66.399 145.694,66.805 C 146.791,67.147 147.887,67.552 148.958,68.023 C 149.914,68.441 150.85,68.91 151.748,69.432 C 152.917,70.113 154.025,70.88 155.033,71.74 C 156.192,72.731 157.221,73.84 158.058,75.072 C 158.93,76.36 159.595,77.782 159.989,79.345 C 160.205,80.192 160.335,81.079 160.378,82.01 C 160.425,83.054 160.315,84.062 160.069,85.039 C 159.736,86.352 159.161,87.613 158.392,88.838 C 157.425,90.382 156.15,91.872 154.676,93.336 C 153.184,94.816 151.491,96.273 149.704,97.738 C 148.604,98.639 147.471,99.543 146.327,100.459 C 145.448,101.163 144.563,101.874 143.683,102.594 C 142.696,103.403 141.716,104.225 140.759,105.064 C 139.913,105.825 139.104,106.55 138.322,107.305 C 138.063,107.555 137.808,107.808 137.553,108.065 C 136.736,108.89 135.933,109.762 135.103,110.735 C 135.578,110.046 136.312,109.008 137.017,107.941 C 137.512,107.193 137.992,106.431 138.341,105.75 C 138.499,105.441 138.633,105.136 138.73,104.865 C 138.818,104.621 138.877,104.406 138.879,104.236 C 138.879,103.587 138.881,103.341 138.881,103.268 C 138.881,102.65 138.883,100.419 138.883,95.483 C 138.883,93.934 138.883,90.664 138.883,89.027 C 138.884,86.752 138.884,85.598 138.884,80.688 C 138.884,78.076 138.882,73.472 138.882,70.476 C 138.882,67.753 138.882,65.453 138.882,65.453"
         id="path2664" /></clipPath><clipPath
       clipPathUnits="userSpaceOnUse"
       id="clipPath2670"><path
         d="M 8169.8799,8105.3496 L 8240.1494,8105.3496 L 8240.1494,8231.1396 L 8169.8799,8231.1396 L 8169.8799,8105.3496 z"
         id="path2672" /></clipPath><clipPath
       clipPathUnits="userSpaceOnUse"
       id="clipPath3166"><path
         d="M 138.882,70.797 C 138.882,70.797 140.634,72.867 141.132,73.455 C 141.457,73.838 142.193,74.774 142.891,75.674 C 143.568,76.546 144.207,77.384 144.397,77.646 C 144.486,77.772 145.586,79.34 145.683,79.477 C 146.221,80.24 145.836,79.706 146.122,80.094 C 146.241,80.271 146.311,80.326 147.082,81.506 C 147.169,81.638 147.314,81.865 147.436,82.067 C 147.508,82.182 148.152,83.226 148.207,83.314 C 148.338,83.527 148.454,83.722 148.559,83.905 C 148.871,84.449 149.088,84.884 149.335,85.338 C 149.893,86.363 150.164,86.853 150.665,87.937 C 151.016,88.691 151.403,89.579 151.651,90.215 C 151.825,90.661 152.092,91.369 152.229,91.761 C 152.325,92.035 152.564,92.749 152.698,93.184 C 152.952,94.019 153.079,94.57 153.134,94.798 C 153.153,94.883 153.013,95.403 153.014,95.415 C 152.444,95.91 151.649,96.598 151.117,97.035 C 150.907,97.21 149.325,98.533 149.052,98.756 C 148.03,99.586 146.534,100.791 145.452,101.664 C 144.339,102.562 143.639,103.129 142.593,103.992 C 138.801,107.111 136.947,109.208 134.934,111.029 C 135.927,108.76 138.484,105.521 138.484,103.268 C 138.484,103.106 138.486,100.888 138.486,100.282 C 138.486,99.675 138.486,97.183 138.486,96.572 C 138.486,95.959 138.487,92.907 138.487,92.358 C 138.487,91.808 138.484,88.586 138.484,87.717 C 138.484,87.181 138.484,85.026 138.484,84.179 C 138.484,83.89 138.484,82.983 138.484,82.819 C 138.484,82.234 138.484,73.593 138.484,71.405 C 138.484,71.405 138.624,71.2 138.882,70.797"
         id="path3168" /></clipPath><clipPath
       clipPathUnits="userSpaceOnUse"
       id="clipPath3174"><path
         d="M 8169.4097,8104.54 L 8220.0098,8104.54 L 8220.0098,8216.29 L 8169.4097,8216.29 L 8169.4097,8104.54 z"
         id="path3176" /></clipPath><clipPath
       clipPathUnits="userSpaceOnUse"
       id="clipPath3592"><path
         d="M 141.378,104.525 C 141.561,104.371 141.704,104.25 142.138,103.886 C 142.312,103.738 142.764,103.36 142.932,103.221 C 143.259,102.947 144.432,101.993 144.569,101.879 C 144.609,101.846 144.69,101.78 144.801,101.69 C 145.468,101.15 147.229,99.735 147.771,99.3 C 147.778,99.295 147.8,99.277 147.836,99.248 C 148.237,98.925 150.285,97.273 151.297,96.41 C 152.235,95.609 153.061,94.865 153.132,94.798 C 153.343,95.74 153.487,96.66 153.577,97.521 C 153.702,98.729 153.712,99.857 153.627,100.908 C 153.477,102.708 153.042,104.281 152.405,105.643 C 151.77,107.006 150.932,108.158 149.982,109.112 C 149.882,109.213 149.78,109.311 149.68,109.406 C 149.113,109.93 148.506,110.406 147.858,110.823 C 147.22,111.232 146.547,111.587 145.848,111.879 C 144.606,112.397 143.36,112.689 142.233,112.776 C 140.873,112.882 139.598,112.652 138.793,112.201 C 138.635,112.122 138.495,112.058 138.495,112.058 C 138.495,112.058 138.495,110.587 138.495,110.083 C 138.495,109.703 138.496,107.521 138.496,107.142 C 138.545,107.096 138.881,106.79 138.881,106.773 C 139.494,106.208 140.23,105.531 140.601,105.203 C 140.866,104.968 141.103,104.752 141.378,104.525"
         id="path3594" /></clipPath><clipPath
       clipPathUnits="userSpaceOnUse"
       id="clipPath3600"><path
         d="M 8179.3003,8099.54 L 8221.5693,8099.54 L 8221.5693,8149.6299 L 8179.3003,8149.6299 L 8179.3003,8099.54 z"
         id="path3602" /></clipPath><clipPath
       clipPathUnits="userSpaceOnUse"
       id="clipPath3736"><path
         d="M 136.119,75.119 C 136.188,74.887 136.26,74.657 136.337,74.427 C 136.451,74.087 136.574,73.745 136.714,73.411 C 136.929,72.896 137.184,72.396 137.508,71.948 C 137.755,71.609 138.04,71.295 138.39,71.059 C 138.538,70.96 138.703,70.871 138.881,70.797 C 138.881,72.239 138.881,78.183 138.881,80.158 C 138.881,80.159 138.789,80.178 138.703,80.202 C 138.612,80.227 138.496,80.26 138.496,80.263 C 138.496,84.247 138.496,87.866 138.495,91.85 C 138.494,94.345 138.495,99.43 138.495,101.924 C 138.495,102.905 138.495,103.1 138.495,103.227 C 138.495,103.774 138.88,104.237 138.88,104.233 C 138.88,104.208 138.88,104.236 138.88,104.237 C 138.88,104.399 138.794,104.676 138.751,104.803 C 138.614,105.2 138.43,105.58 138.233,105.949 C 138.12,106.161 138.242,105.954 138.12,106.161 C 137.799,106.701 137.213,107.642 136.864,108.165 C 136.354,108.932 136.464,108.773 135.937,109.529 C 135.749,109.799 135.376,110.336 135.194,110.625 C 134.933,111.038 134.556,112.372 134.372,112.831 C 133.828,112.42 132.958,111.772 132.406,111.369 C 131.095,110.409 129.778,109.456 128.503,108.451 C 127.662,107.788 126.84,107.102 126.052,106.377 C 125.309,105.695 124.551,104.944 123.87,104.13 C 122.606,102.615 121.608,100.873 121.468,98.909 C 121.445,98.581 121.448,98.261 121.474,97.948 C 121.499,97.602 121.544,97.27 121.608,96.948 C 121.86,95.695 122.404,94.627 123.112,93.671 C 123.905,92.603 124.901,91.675 125.924,90.784 C 126.098,90.632 126.274,90.48 126.449,90.328 C 127.649,89.295 128.87,88.267 130.019,87.162 C 131.676,85.563 133.179,83.798 134.24,81.603 C 135.185,79.528 135.482,77.285 136.119,75.119"
         id="path3738" /></clipPath><clipPath
       clipPathUnits="userSpaceOnUse"
       id="clipPath3744"><path
         d="M 8131.9399,8099.5298 L 8180.3696,8099.5298 L 8180.3696,8216.29 L 8131.9399,8216.29 L 8131.9399,8099.5298 z"
         id="path3746" /></clipPath><linearGradient
       x1="0"
       y1="0"
       x2="1"
       y2="0"
       gradientUnits="userSpaceOnUse"
       gradientTransform="matrix(-4.823424,18.398846,18.398846,4.823424,229.74162,-653.63699)"
       spreadMethod="pad"
       id="linearGradient3994"><stop
         style="stop-opacity:1;stop-color:#320000"
         offset="0"
         id="stop3996" /><stop
         style="stop-opacity:1;stop-color:#5d0000"
         offset="1"
         id="stop3998" /></linearGradient><linearGradient
       inkscape:collect="always"
       xlink:href="#linearGradient3994"
       id="linearGradient6928"
       gradientUnits="userSpaceOnUse"
       gradientTransform="matrix(-4.823424,18.398846,18.398846,4.823424,178.37359,-652.01329)"
       spreadMethod="pad"
       x1="0"
       y1="0"
       x2="1"
       y2="0" /><linearGradient
       inkscape:collect="always"
       xlink:href="#linearGradient3994"
       id="linearGradient13087"
       gradientUnits="userSpaceOnUse"
       gradientTransform="matrix(-4.823424,18.398846,18.398846,4.823424,228.23652,-652.54849)"
       spreadMethod="pad"
       x1="0"
       y1="0"
       x2="1"
       y2="0" /><radialGradient
       inkscape:collect="always"
       xlink:href="#linearGradient13097"
       id="radialGradient13103"
       cx="83.894989"
       cy="107.96873"
       fx="83.894989"
       fy="107.96873"
       r="7.6135693"
       gradientTransform="matrix(3.4443993,-2.347322e-2,2.3602436e-2,3.4633602,-206.8635,-263.35304)"
       gradientUnits="userSpaceOnUse" /><linearGradient
       inkscape:collect="always"
       xlink:href="#linearGradient13097"
       id="linearGradient13111"
       x1="70.906181"
       y1="105.05146"
       x2="80.30423"
       y2="93.296669"
       gradientUnits="userSpaceOnUse" /><radialGradient
       inkscape:collect="always"
       xlink:href="#linearGradient13133"
       id="radialGradient13139"
       cx="81.774796"
       cy="108.75017"
       fx="81.774796"
       fy="108.75017"
       r="2.5978158"
       gradientTransform="matrix(-3.1879104,2.3602476,-2.5852595,-3.4918273,623.61293,292.86658)"
       gradientUnits="userSpaceOnUse" /><radialGradient
       inkscape:collect="always"
       xlink:href="#linearGradient13159"
       id="radialGradient13157"
       cx="78.951347"
       cy="84.8638"
       fx="78.951347"
       fy="84.8638"
       r="12.642331"
       gradientTransform="matrix(1.2113198,1.5046584,-1.6027597,1.290288,124.9057,-154.61864)"
       gradientUnits="userSpaceOnUse" /><radialGradient
       inkscape:collect="always"
       xlink:href="#linearGradient13133"
       id="radialGradient13171"
       cx="75.852272"
       cy="73.316071"
       fx="75.852272"
       fy="73.316071"
       r="4.9857697"
       gradientTransform="matrix(-2.3147505,1.1957587,-0.9558647,-1.8503634,325.46969,116.56316)"
       gradientUnits="userSpaceOnUse" /><radialGradient
       inkscape:collect="always"
       xlink:href="#linearGradient13181"
       id="radialGradient13179"
       cx="93.05838"
       cy="94.702835"
       fx="93.05838"
       fy="94.702835"
       r="8.9444189"
       gradientTransform="matrix(1.6545476,1.9474072,-2.1097047,1.7924382,133.07241,-250.74352)"
       gradientUnits="userSpaceOnUse" /><linearGradient
       inkscape:collect="always"
       xlink:href="#linearGradient3994"
       id="linearGradient2468"
       gradientUnits="userSpaceOnUse"
       gradientTransform="matrix(-1.2306122,4.6941436,4.6941436,1.2306122,119.95345,-76.356764)"
       spreadMethod="pad"
       x1="0"
       y1="0"
       x2="1"
       y2="0" /><linearGradient
       inkscape:collect="always"
       xlink:href="#linearGradient13097"
       id="linearGradient2475"
       gradientUnits="userSpaceOnUse"
       gradientTransform="translate(58.268893,-7.106232e-6)"
       x1="189.52541"
       y1="58.030899"
       x2="232.19206"
       y2="17.874037" /><radialGradient
       inkscape:collect="always"
       xlink:href="#linearGradient13133"
       id="radialGradient2478"
       gradientUnits="userSpaceOnUse"
       gradientTransform="matrix(-10.916172,8.1968208,-7.4583681,-9.9327484,1467.4233,651.80781)"
       cx="42.322643"
       cy="94.079773"
       fx="42.322643"
       fy="94.079773"
       r="2.5978158" /><radialGradient
       inkscape:collect="always"
       xlink:href="#linearGradient13097"
       id="radialGradient2481"
       gradientUnits="userSpaceOnUse"
       gradientTransform="matrix(7.8718081,-1.7044879,1.3671429,6.3138543,-889.81057,-315.54111)"
       cx="137.42596"
       cy="99.408234"
       fx="137.42596"
       fy="99.408234"
       r="7.6135693" /><radialGradient
       inkscape:collect="always"
       xlink:href="#linearGradient13181"
       id="radialGradient2484"
       gradientUnits="userSpaceOnUse"
       gradientTransform="matrix(5.7636508,6.6050518,-8.1069702,7.074243,-66.898322,-1027.1538)"
       cx="121.3932"
       cy="39.075352"
       fx="121.3932"
       fy="39.075352"
       r="8.9444189" /><radialGradient
       inkscape:collect="always"
       xlink:href="#linearGradient13159"
       id="radialGradient2487"
       gradientUnits="userSpaceOnUse"
       gradientTransform="matrix(3.0209459,9.6649921,-6.2763743,1.9614523,-65.137115,-704.72755)"
       cx="69.566948"
       cy="-26.194185"
       fx="69.566948"
       fy="-26.194185"
       r="12.642331" /><radialGradient
       inkscape:collect="always"
       xlink:href="#linearGradient13133"
       id="radialGradient2490"
       gradientUnits="userSpaceOnUse"
       gradientTransform="matrix(-12.129818,4.0913244,-2.9912421,-8.8682122,549.88146,828.40428)"
       cx="-3.783386"
       cy="99.871925"
       fx="-3.783386"
       fy="99.871925"
       r="4.9857697" /></defs><sodipodi:namedview
     inkscape:window-height="715"
     inkscape:window-width="1024"
     inkscape:pageshadow="2"
     inkscape:pageopacity="0.0"
     guidetolerance="10.0"
     gridtolerance="10.0"
     objecttolerance="10.0"
     borderopacity="1.0"
     bordercolor="#666666"
     pagecolor="#ffffff"
     id="base"
     showgrid="false"
     showguides="true"
     inkscape:guide-bbox="true"
     inkscape:zoom="1.0418182"
     inkscape:cx="275"
     inkscape:cy="200"
     inkscape:window-x="0"
     inkscape:window-y="21"
     inkscape:current-layer="g2432"><sodipodi:guide
       orientation="0,1"
       position="251.79224,1058.8186"
       id="guide5102" /><sodipodi:guide
       orientation="0,1"
       position="-49.411765,99.607843"
       id="guide5310" /></sodipodi:namedview><g
     id="g2432"
     inkscape:groupmode="layer"
     inkscape:label="remote_access_service_over_ipss-mm00313"
     transform="matrix(1.25,0,0,-1.25,-114.44875,147.04842)"><path
       d="M 364.08146,-183.79774 C 348.9795,-183.79774 339.11404,-176.2448 339.11404,-158.21103 C 339.11404,-142.92486 347.55279,-131.11139 366.12353,-131.11139 C 370.12146,-131.11139 375.18549,-131.91097 378.56413,-133.24361 L 375.71855,-143.90474 C 372.70443,-142.83863 369.7687,-142.03904 366.48021,-142.03904 C 356.97535,-142.03904 353.06365,-148.25934 353.06365,-157.58782 C 353.06365,-166.64978 356.61867,-172.6937 365.94715,-172.6937 C 370.30175,-172.6937 373.31979,-171.62759 376.25552,-170.47133 L 377.76454,-180.95607 C 375.18549,-182.55524 369.7687,-183.79774 364.08146,-183.79774 z M 242.18009,-125.60444 C 246.80122,-125.60444 250.53261,-122.04943 250.53261,-117.51845 C 250.53261,-113.0737 246.80122,-109.69898 242.18009,-109.69898 C 237.91956,-109.69898 234.09802,-113.0737 234.09802,-117.51845 C 234.09802,-122.04943 237.91956,-125.60444 242.18009,-125.60444 z M 234.98383,-182.908 L 248.04371,-182.908 L 248.04371,-132.00112 C 241.91748,-131.37399 234.98383,-133.06723 234.98383,-142.66225 L 234.98383,-182.908 z M 406.10276,-142.12919 C 400.24698,-142.12919 394.64597,-146.48379 394.64597,-157.67797 C 394.64597,-167.36314 398.28721,-172.77993 405.9303,-172.77993 C 412.41321,-172.77993 417.39101,-167.53952 417.39101,-157.23507 C 417.39101,-147.3696 413.836,-142.12919 406.10276,-142.12919 z M 405.57754,-183.97411 C 391.09095,-183.97411 380.96288,-176.07234 380.96288,-158.29726 C 380.96288,-142.39572 391.62401,-130.93109 407.08656,-130.93109 C 421.47908,-130.93109 430.80757,-139.021 430.80757,-156.34533 C 430.80757,-172.96023 420.68342,-183.97411 405.57754,-183.97411 z M 144.36033,-142.92486 C 141.51475,-141.86266 137.16015,-140.79655 133.60906,-140.79655 C 129.52098,-140.79655 126.4128,-141.86266 126.4128,-145.59406 C 126.4128,-154.38949 148.97754,-148.97269 148.97754,-167.09661 C 148.97754,-179.35691 139.02585,-184.06426 127.83167,-184.06426 C 122.67748,-184.06426 117.52722,-183.2686 112.81594,-181.84581 L 113.61552,-171.09453 C 113.61552,-171.09453 121.07831,-173.57952 127.29861,-173.57952 C 131.65321,-173.57952 135.20822,-172.24687 135.20822,-168.42925 C 135.20822,-159.01062 112.54941,-165.05453 112.54941,-147.01685 C 112.54941,-135.73251 122.0582,-131.11139 132.54294,-131.11139 C 138.75932,-131.11139 143.73713,-132.26765 146.75517,-133.33376 L 144.36033,-142.92486 z M 229.03006,-132.00112 C 226.1884,-147.10308 218.90199,-170.91423 214.28086,-182.908 L 200.4214,-182.908 L 190.64609,-148.97269 L 190.46971,-148.97269 L 180.69831,-182.908 L 166.92508,-182.908 C 162.48425,-171.09453 154.48448,-146.48379 152.17588,-132.00112 L 165.23968,-132.00112 L 173.85873,-167.00646 L 174.03119,-167.00646 L 184.33956,-132.00112 L 197.40336,-132.00112 L 207.44128,-166.73993 L 207.62158,-166.73993 L 216.32686,-132.00112 L 229.03006,-132.00112 z M 496.9144,-130.93109 C 506.77594,-130.93109 512.54941,-136.26557 512.54941,-147.90266 L 512.54941,-182.908 L 499.4033,-182.908 L 499.4033,-150.57186 C 499.4033,-145.32753 497.88644,-141.86266 492.28935,-141.86266 C 486.69618,-141.86266 481.8046,-146.7464 481.8046,-155.54183 L 481.8046,-182.908 L 468.92502,-182.908 L 468.92502,-150.57186 C 468.92502,-145.68029 467.32585,-141.86266 461.72484,-141.86266 C 455.86122,-141.86266 451.33024,-147.28338 451.33024,-156.07881 L 451.33024,-182.908 L 438.00775,-182.908 L 438.00775,-132.00112 C 446.71303,-130.93109 449.9976,-134.4861 450.35428,-140.17334 C 453.55261,-134.4861 459.06348,-130.93109 466.25974,-130.93109 C 475.41184,-130.93109 479.05309,-135.99904 480.38573,-140.79655 C 482.60419,-135.73251 488.29143,-130.93109 496.9144,-130.93109 z M 287.58003,-142.92486 C 284.65214,-141.86266 280.38769,-140.79655 276.83659,-140.79655 C 272.7446,-140.79655 269.46003,-141.86266 269.46003,-145.59406 C 269.46003,-154.38949 292.20508,-148.97269 292.20508,-167.09661 C 292.20508,-179.35691 282.16716,-184.06426 271.0592,-184.06426 C 265.90502,-184.06426 260.75083,-183.2686 255.86318,-181.84581 L 256.84306,-171.09453 C 256.84306,-171.09453 264.30585,-173.57952 270.52615,-173.57952 C 274.70045,-173.57952 278.34169,-172.24687 278.34169,-168.42925 C 278.34169,-159.01062 255.59665,-165.05453 255.59665,-147.01685 C 255.59665,-135.73251 265.19166,-131.11139 275.58626,-131.11139 C 281.80656,-131.11139 286.96075,-132.26765 289.9827,-133.33376 L 287.58003,-142.92486 z M 328.98597,-142.92486 C 326.14431,-141.86266 321.78971,-140.79655 318.23469,-140.79655 C 314.15054,-140.79655 310.94828,-141.86266 310.94828,-145.59406 C 310.94828,-154.38949 333.6071,-148.97269 333.6071,-167.09661 C 333.6071,-179.35691 323.6554,-184.06426 312.46122,-184.06426 C 307.30704,-184.06426 302.15285,-183.2686 297.44549,-181.84581 L 298.33523,-171.09453 C 298.33523,-171.09453 305.70787,-173.57952 311.92816,-173.57952 C 316.28276,-173.57952 319.83778,-172.24687 319.83778,-168.42925 C 319.83778,-159.01062 297.17897,-165.05453 297.17897,-147.01685 C 297.17897,-135.73251 306.68775,-131.11139 317.16858,-131.11139 C 323.38888,-131.11139 328.45291,-132.26765 331.38472,-133.33376 L 328.98597,-142.92486"
       style="fill:#122a6b;fill-opacity:1;fill-rule:nonzero;stroke:none"
       id="path2434" /><path
       style="fill:url(#radialGradient2490);fill-opacity:1;fill-rule:nonzero;stroke:none"
       d="M 272.33621,-16.016065 C 267.48923,-22.25502 263.77751,-30.26164 264.83906,-38.308149 C 266.12177,-48.030834 272.2538,-56.386602 279.43932,-62.707236 C 286.53038,-68.944767 295.07857,-73.20707 303.74042,-76.817551 C 300.50183,-74.941177 298.17336,-72.235743 296.3913,-69.174463 C 294.60923,-66.113183 293.3471,-62.640807 292.37378,-58.98368 C 290.42712,-51.669426 289.48492,-43.785507 286.88643,-37.622231 C 284.96078,-32.654044 282.31985,-28.205712 279.24334,-24.099845 C 277.1647,-21.325718 274.7555,-18.52914 272.33621,-16.016065 z"
       id="path13057"
       sodipodi:nodetypes="csscsscsc" /><path
       style="fill:url(#radialGradient2487);fill-opacity:1;fill-rule:nonzero;stroke:none"
       d="M 288.94419,79.767745 C 290.80452,77.066913 293.6285,72.975941 296.3913,68.793055 C 297.60392,66.959577 298.86327,65.090234 299.91887,63.30571 C 300.55215,62.235717 301.07208,61.267789 301.58468,60.268073 C 302.20411,59.056859 302.77347,57.802883 303.15249,56.740494 C 303.42536,55.983202 303.56592,55.266319 303.64243,54.68274 C 303.66246,54.530466 303.73901,54.428637 303.74042,54.290787 C 303.74042,51.746971 303.74042,50.754428 303.74042,50.469243 C 303.74042,50.166734 303.74042,49.801747 303.74042,49.293383 C 303.74112,48.784824 303.74042,48.163343 303.74042,47.431606 C 303.74097,45.968053 303.73901,44.005817 303.74042,41.552316 C 303.74183,39.098806 303.73971,36.115345 303.74042,32.537392 C 303.74101,28.959298 303.74042,24.831063 303.74042,19.99489 C 303.74042,18.476338 303.74042,16.565472 303.74042,14.409557 C 303.74112,12.253641 303.74042,9.835055 303.74042,7.4523872 C 303.74042,5.0698644 303.74042,2.6938872 303.74042,0.49521792 C 303.74042,-1.7034553 303.74042,-3.6813256 303.74042,-5.2860918 C 303.74183,-9.7446653 303.74042,-13.177834 303.74042,-17.828594 C 303.74041,-20.154684 303.74042,-22.790251 303.74042,-26.059611 C 303.74112,-29.328964 303.74042,-33.203554 303.74042,-38.014184 C 303.74041,-40.57521 303.74112,-43.61576 303.74042,-46.931119 C 303.73971,-50.24662 303.74112,-53.884118 303.74042,-57.513856 C 303.73901,-61.143448 303.74101,-64.789683 303.74042,-68.292569 C 303.73971,-71.795458 303.74042,-75.156312 303.74042,-78.091399 C 303.74042,-88.765429 303.74041,-97.689047 303.74042,-97.689059 C 305.59792,-97.534833 307.48694,-97.360183 309.42374,-97.101129 C 311.3605,-96.842052 313.30772,-96.58582 315.30304,-96.219234 C 317.76827,-95.763059 320.32494,-95.176262 322.84814,-94.553433 C 325.36981,-93.930467 327.84817,-93.192807 330.39324,-92.39769 C 332.54295,-91.728019 334.72444,-91.037064 336.86046,-90.241948 C 338.99633,-89.446836 341.12966,-88.61622 343.2297,-87.694252 C 345.10101,-86.875717 346.98916,-85.969125 348.81504,-85.048568 C 350.64091,-84.128007 352.44331,-83.131352 354.20439,-82.108919 C 356.49466,-80.775075 358.71507,-79.401698 360.8676,-77.895422 C 363.01996,-76.389287 365.06487,-74.780601 367.04086,-73.093995 C 369.31191,-71.153682 371.4245,-69.096684 373.4101,-66.920732 C 375.39584,-64.743511 377.2577,-62.477237 378.89744,-60.061551 C 380.6062,-57.536934 382.1316,-54.816967 383.4049,-52.026511 C 384.67683,-49.23747 385.66956,-46.368902 386.44254,-43.305552 C 386.86428,-41.646461 387.2654,-39.951232 387.52041,-38.210161 C 387.77396,-36.469653 387.92765,-34.643857 388.01035,-32.820804 C 388.10403,-30.775087 388.01842,-28.822348 387.81437,-26.843518 C 387.60907,-24.864832 387.2188,-22.880401 386.7365,-20.96422 C 385.43016,-15.818047 383.18497,-10.872307 380.17128,-6.0699982 C 378.27654,-3.0446094 376.15008,-0.087585129 373.70406,2.8469371 C 371.25803,5.7814633 368.55866,8.6995509 365.66902,11.567896 C 362.7462,14.469263 359.62597,17.320546 356.36014,20.190866 C 353.09561,23.061332 349.67224,25.941259 346.16935,28.813837 C 344.01274,30.579746 341.81452,32.329563 339.60414,34.105205 C 337.39516,35.881411 335.1829,37.700278 332.94093,39.494561 C 331.21709,40.875256 329.47689,42.216237 327.74755,43.610062 C 326.01818,45.004592 324.27802,46.411822 322.55417,47.823559 C 318.6861,50.992305 314.83979,54.235874 311.08954,57.524401 C 307.77475,60.508615 304.55415,63.383435 301.48669,66.343348 C 300.47243,67.320369 299.54534,68.274384 298.54704,69.282997 C 299.51628,68.113056 300.4319,66.714684 301.3887,65.265476 C 300.42986,66.718173 299.51818,68.110625 298.54704,69.282997 C 295.34654,72.515787 292.19775,75.953452 288.94419,79.767745 z M 310.40362,49.195395 C 310.56067,48.699849 310.65779,48.23217 310.69759,47.823559 C 310.65768,48.241695 310.56658,48.684994 310.40362,49.195395 z"
       id="path2674"
       sodipodi:nodetypes="cssssssssssssssssssssssssssssssssssssssssssssssssssscscscccsc" /><path
       style="fill:url(#radialGradient2484);fill-opacity:1;fill-rule:nonzero;stroke:none"
       d="M 288.97689,79.670619 C 299.32516,64.659282 303.3442,60.064297 303.8562,53.224596 C 303.85628,11.612253 304.17639,-34.759377 304.17651,-76.371743 C 329.93355,-50.177742 349.42358,-17.226237 359.09275,18.253167 C 337.07757,36.789347 307.9229,57.577118 288.97689,79.670619 z"
       id="path3178"
       sodipodi:nodetypes="ccccc" /><path
       style="fill:url(#radialGradient2481);fill-opacity:1;fill-rule:nonzero;stroke:none"
       d="M 312.95132,87.802785 C 308.82566,87.19808 300.57892,87.20929 302.17261,81.183245 C 302.17206,76.007973 303.75457,69.412537 303.75414,64.237266 C 321.11248,48.454094 342.48613,31.351157 359.10588,18.256311 C 363.28676,35.307043 361.95248,54.639116 351.83496,68.063826 C 342.90669,80.099416 328.05955,88.11333 312.95132,87.802785 z"
       id="path3604"
       sodipodi:nodetypes="cccccc" /><path
       style="fill:url(#radialGradient2478);fill-opacity:1;fill-rule:nonzero;stroke:none"
       d="M 300.80077,106.81252 C 295.91225,106.41233 290.91943,104.92648 287.13038,101.70607 C 284.26285,99.104756 282.85076,95.050745 283.55483,91.232376 C 284.39964,86.715899 286.71189,82.606779 289.54282,79.043258 C 291.72447,76.422111 294.03585,73.919137 296.40188,71.464451 C 298.78495,68.992089 301.24509,66.59651 303.74042,64.248201 C 303.74042,77.980046 303.74042,92.884733 303.74042,106.61654 C 302.7817,106.86257 301.78234,106.8561 300.80077,106.81252 z"
       id="path4018"
       sodipodi:nodetypes="ccscsccc" /><path
       style="fill:url(#linearGradient2475);fill-opacity:1;fill-rule:nonzero;stroke:none"
       d="M 284.73618,87.017507 C 268.75707,74.226702 249.92011,63.528144 239.24456,45.450322 C 232.01032,33.3984 236.04889,17.596994 245.82443,8.2524539 C 260.34932,-6.1437677 279.19074,-17.731198 286.89333,-37.603938 C 292.09032,-49.930482 290.80126,-69.27148 303.75563,-76.776972 C 303.82316,-60.745878 303.81928,-60.799552 303.74422,-40.087522 C 295.02883,-38.306965 292.54651,-30.298585 291.62977,-23.376852 C 290.76112,-15.878321 287.46805,-8.487593 280.7769,-4.462167 C 273.91678,0.46498657 263.83704,5.9110077 265.19229,15.888545 C 265.89463,24.641119 275.79035,26.379878 282.28478,29.459674 C 293.08333,33.610599 289.82961,52.777887 303.6895,54.327748 C 303.88575,58.97839 298.57208,65.723866 295.90516,69.634853 C 291.98241,75.387472 287.82967,80.844087 284.73618,87.017507 z"
       id="path11650"
       sodipodi:nodetypes="cccccccccccsc" /><g
       id="g3984"
       transform="matrix(3.919532,0,0,3.919532,-240.41976,-354.3542)"><g
         id="g3986"><g
           id="g3992"><path
             d="M 138.882,80.158 C 138.818,80.169 138.768,80.178 138.686,80.2 C 138.312,80.302 137.951,80.453 137.629,80.67 C 134.74649,82.521308 136.9167,86.289673 133.345,89.009 C 133.1,88.761 132.68071,88.411645 132.09071,87.820645 L 130.82221,86.32402 C 132.14021,84.94902 133.363,83.417 134.24,81.603 C 135.286,79.307 135.45207,76.719066 136.25207,74.341066 C 136.54407,73.471066 136.98,72.671 137.523,71.928 C 137.863,71.466 138.271,71.048 138.882,70.797 C 138.882,71.785 138.882,78.928 138.882,80.072 L 138.882,80.158"
             style="fill:url(#linearGradient2468);stroke:none"
             id="path4000"
             sodipodi:nodetypes="cscccccssccc" /></g></g></g></g></svg>